<?xml version="1.0" encoding="utf-8"?><!DOCTYPE svg  PUBLIC '-//W3C//DTD SVG 1.1//EN'  'http://www.w3.org/Graphics/SVG/1.1/DTD/svg11.dtd'><svg xmlns="http://www.w3.org/2000/svg" xmlns:xlink="http://www.w3.org/1999/xlink"><symbol viewBox="0 0 500 497" id="calendar" xmlns="http://www.w3.org/2000/svg"><rect x="364" y="43" width="16" height="27" rx="8"/><rect x="440.092" y="68" width="16" height="27" rx="8" transform="rotate(45 440.092 68)"/><rect x="476" y="138" width="16" height="27" rx="8" transform="rotate(90 476 138)"/><rect x="451.406" y="215.092" width="16" height="27" rx="8" transform="rotate(135 451.406 215.092)"/><rect x="379" y="251" width="16" height="27" rx="8" transform="rotate(180 379 251)"/><rect x="303.313" y="225.406" width="16" height="27" rx="8" transform="rotate(-135 303.313 225.406)"/><rect x="268" y="154" width="16" height="27" rx="8" transform="rotate(-90 268 154)"/><rect x="293" y="79.314" width="16" height="27" rx="8" transform="rotate(-45 293 79.314)"/><path fill-rule="evenodd" clip-rule="evenodd" d="M364 83a8 8 0 0116 0v41c0 .122-.003.243-.008.363C389.318 127.655 396 136.547 396 147c0 3.71-.842 7.223-2.344 10.358.107.096.212.196.315.299l28.991 28.991a8 8 0 01-11.314 11.314l-28.991-28.991a8.03 8.03 0 01-.299-.315A23.912 23.912 0 01372 171c-13.255 0-24-10.745-24-24 0-10.453 6.682-19.345 16.008-22.637A8.715 8.715 0 01364 124V83zm8 72a8 8 0 100-16 8 8 0 000 16zM157 16h53c13.255 0 24 10.745 24 24v4h16v-4c0-22.091-17.909-40-40-40h-53c-22.091 0-40 17.909-40 40v4h16v-4c0-13.255 10.745-24 24-24zM266 69h25.626a112.51 112.51 0 00-12.914 16H266V69zm86 398V257.219c5.217.941 10.559 1.52 16 1.711V467c0 16.569-13.431 30-30 30H30c-16.569 0-30-13.431-30-30V99c0-16.569 13.431-30 30-30h71v16H30c-7.732 0-14 6.268-14 14v368c0 7.732 6.268 14 14 14h308c7.732 0 14-6.268 14-14zM60 186v47h43v-47H60zm-8-16a8 8 0 00-8 8v63a8 8 0 008 8h59a8 8 0 008-8v-63a8 8 0 00-8-8H52zm110 16v47h43v-47h-43zm-8-16a8 8 0 00-8 8v63a8 8 0 008 8h59a8 8 0 008-8v-63a8 8 0 00-8-8h-59zM60 334v-47h43v47H60zm-16-55a8 8 0 018-8h59a8 8 0 018 8v63a8 8 0 01-8 8H52a8 8 0 01-8-8v-63zm16 109v47h43v-47H60zm-8-16a8 8 0 00-8 8v63a8 8 0 008 8h59a8 8 0 008-8v-63a8 8 0 00-8-8H52zm110 63v-47h43v47h-43zm-16-55a8 8 0 018-8h59a8 8 0 018 8v63a8 8 0 01-8 8h-59a8 8 0 01-8-8v-63zm124 8v47h43v-47h-43zm-8-16a8 8 0 00-8 8v63a8 8 0 008 8h59a8 8 0 008-8v-63a8 8 0 00-8-8h-59zm8-38v-47h43v47h-43zm-16-55a8 8 0 018-8h59a8 8 0 018 8v63a8 8 0 01-8 8h-59a8 8 0 01-8-8v-63zm-23.1-2.343a8 8 0 00-11.314 0l-46.42 46.419-16.471-23.523a8 8 0 00-11.142-1.964 7.998 7.998 0 00-1.964 11.141l22.033 31.467a7.998 7.998 0 0011.141 1.964 7.96 7.96 0 002.089-2.143l52.048-52.047a8 8 0 000-11.314z"/><path fill-rule="evenodd" clip-rule="evenodd" d="M282 80.325V54c0-5.523-4.477-10-10-10H95c-5.523 0-10 4.477-10 10v51c0 5.523 4.477 10 10 10h169.638A111.604 111.604 0 01282 80.325zM101 99V60h165v39H101z"/><path fill-rule="evenodd" clip-rule="evenodd" d="M484 147c0 61.856-50.144 112-112 112s-112-50.144-112-112S310.144 35 372 35s112 50.144 112 112zm16 0c0 70.692-57.308 128-128 128-70.692 0-128-57.308-128-128 0-70.692 57.308-128 128-128 70.692 0 128 57.308 128 128z"/></symbol><symbol viewBox="0 0 32 32" id="telegram-icon" xmlns="http://www.w3.org/2000/svg"><g id="btelegram_3_"><path d="M15.737 31C7.474 31 1 24.411 1 16c0-3.629 1.237-7.111 3.485-9.804a.5.5 0 01.768.641C3.155 9.35 2 12.604 2 16c0 7.851 6.034 14 13.737 14C23.602 30 30 23.72 30 16S23.602 2 15.737 2c-2.44 0-4.813.62-6.858 1.792a.5.5 0 01-.496-.869C10.579 1.665 13.122 1 15.737 1 24.153 1 31 7.729 31 16s-6.847 15-15.263 15z"/><path d="M7.543 4.552c0 .275-.225.5-.5.5a.501.501 0 01-.5-.5.5.5 0 011 0z"/><g><path d="M19.55 24.018a.496.496 0 01-.316-.113l-5.763-4.721a.5.5 0 01-.019-.758l4.277-3.86a.499.499 0 11.67.742l-3.846 3.47 5.313 4.353a.5.5 0 01-.316.887z"/><path d="M20.157 24.204c-.265 0-.55-.083-.849-.248l-3.286-2.641-1.684 1.553c-.234.229-.52.507-1.089.507-.7 0-.863-.369-.97-.748-.019-.065-.04-.141-.071-.228l-1.206-3.969-3.456-1.078c-.814-.25-.923-.749-.932-.951-.014-.336.161-.815 1.074-1.181l14.848-5.729a1.074 1.074 0 011.212.323c.203.249.281.573.215.889l-2.565 12.275c-.23 1.106-.945 1.226-1.241 1.226zM16 20.155c.111 0 .222.037.313.111l3.55 2.862c.459.219.5-.085.557-.354L22.985 10.5l-.063-.081-14.866 5.732c-.175.07-.29.139-.36.19.037.018.086.037.147.056l3.711 1.158c.157.05.281.174.329.332l1.274 4.196c.033.088.061.188.085.272a.133.133 0 01.005.019c.133-.001.203-.037.388-.218l2.026-1.87a.508.508 0 01.339-.131z"/></g><path d="M20.043 13.552c0 .275-.225.5-.5.5a.501.501 0 01-.5-.5.5.5 0 011 0z"/></g></symbol><symbol viewBox="0 0 32 32" id="viber-icon" xmlns="http://www.w3.org/2000/svg"><g id="cviber_1_"><path d="M9.984 31.001c-.159 0-.326-.025-.503-.081-.904-.275-1.109-1.335-1.086-1.918l.004-2.529c-6.861-2.181-6.706-9.549-6.631-13.122.078-3.707.78-6.334 2.209-8.27a.499.499 0 11.804.594c-1.301 1.762-1.94 4.208-2.014 7.697-.077 3.64-.22 10.413 6.25 12.243a.503.503 0 01.381.485l-.005 2.922c-.005.186.045.84.382.942.438.14.746-.154 1.453-.956.136-.155.279-.317.431-.48a87.128 87.128 0 001.676-1.896.493.493 0 01.42-.171c4.857.406 8.41-.602 8.443-.612a6.91 6.91 0 01.381-.104c1.545-.394 5.651-1.439 6.393-7.522.803-6.535-.139-11.337-2.652-13.522-.489-.451-3.21-2.652-9.794-2.681-.074-.004-4.462-.246-8.09 1.111a.499.499 0 11-.351-.936c3.831-1.433 8.285-1.184 8.473-1.174 6.925.029 9.903 2.45 10.429 2.935 2.761 2.401 3.822 7.515 2.978 14.389-.825 6.762-5.577 7.972-7.138 8.37-.136.035-.245.062-.322.087-.723.229-4.247.998-8.579.677a79.003 79.003 0 01-1.533 1.73c-.147.158-.284.313-.415.462-.578.655-1.172 1.33-1.994 1.33z"/><path d="M20.258 22.6a2.01 2.01 0 01-.61-.096l-.171-.065c-1.376-.443-4.095-1.89-5.786-3.237a15.347 15.347 0 01-2.483-2.483 18.955 18.955 0 01-1.79-2.707c-1.221-2.207-1.505-3.222-1.517-3.264-.461-1.43.854-2.783 2.122-3.5l.144-.065c.679-.302 1.397-.145 1.852.401 0 0 .716.856 1.022 1.278.302.41.698 1.058.89 1.392.482.862.184 1.751-.339 2.152l-.671.537c-.11.089-.117.325-.114.358.008 0 .998 3.465 4.4 4.334.052-.014.211-.044.279-.129l.544-.679c.433-.567 1.401-.747 2.141-.334.738.417 1.884 1.173 2.693 1.936.532.432.678 1.126.372 1.814v.019l-.065.126c-.296.519-1.378 2.212-2.913 2.212zm-.152-1.012c.792.125 1.675-.809 2.159-1.633l.027-.056c.157-.301.127-.543-.088-.718-.639-.602-1.619-1.305-2.524-1.815-.337-.189-.749-.07-.863.079l-.551.688c-.354.442-.903.49-1.123.49l-.104-.004c-4.084-1.038-5.169-4.978-5.213-5.145-.021-.164-.068-.878.47-1.31l.68-.544c.132-.101.322-.45.086-.872-.215-.375-.58-.959-.828-1.295a31.658 31.658 0 00-.983-1.227c-.192-.231-.438-.256-.738-.099l-.102.053c-.758.455-1.84 1.386-1.551 2.284.008.029.284.987 1.434 3.066a18.063 18.063 0 001.697 2.569 14.314 14.314 0 002.321 2.321c1.793 1.428 4.565 2.818 5.612 3.111l.182.057zM23 13.5a.5.5 0 01-.5-.5c0-3.033-2.467-5.5-5.5-5.5a.5.5 0 010-1c3.584 0 6.5 2.916 6.5 6.5a.5.5 0 01-.5.5z"/><path d="M21 13.5a.5.5 0 01-.5-.5c0-1.93-1.57-3.5-3.5-3.5a.5.5 0 010-1c2.481 0 4.5 2.019 4.5 4.5a.5.5 0 01-.5.5z"/><path d="M19 13.5a.5.5 0 01-.5-.5c0-.827-.673-1.5-1.5-1.5a.5.5 0 010-1c1.378 0 2.5 1.122 2.5 2.5a.5.5 0 01-.5.5z"/><circle cx="6.5" cy="3.5" r=".5"/></g></symbol><symbol viewBox="0 0 32 32" id="whatsapp-icon" xmlns="http://www.w3.org/2000/svg"><g id="dWhatsapp"><path d="M16.004 31c-2.868 0-5.646-.811-8.05-2.347l-5.348 1.709a.498.498 0 01-.626-.635l1.725-5.146A14.837 14.837 0 011 16c0-4.076 1.612-7.891 4.539-10.742a.5.5 0 01.697.716A13.895 13.895 0 002 16c0 2.974.922 5.811 2.665 8.204a.5.5 0 01.069.454L3.242 29.11l4.633-1.481a.501.501 0 01.429.059 13.912 13.912 0 007.7 2.312C23.722 30 30 23.72 30 16c0-7.719-6.278-14-13.996-14h-.003a13.83 13.83 0 00-6.164 1.429.5.5 0 01-.441-.897A14.823 14.823 0 0115.996 1C24.272 1 31 7.729 31 16s-6.728 15-14.996 15z"/><path d="M20.602 24.493c-1.011 0-2.422-.39-4.439-1.226-2.633-1.09-5.243-3.374-7.35-6.429l-.075-.107c-.696-.951-1.823-2.773-1.823-4.675 0-2.229 1.115-3.36 1.592-3.843.449-.461 1.12-.706 1.874-.706.19 0 .36.009.515.018.635.025 1.003.185 1.353 1.022l.363.88c.384.931.857 2.08.931 2.235.082.169.331.688.054 1.228-.148.316-.293.483-.492.713-.14.161-.233.261-.328.361-.11.118-.222.234-.334.375-.193.226-.193.226-.128.339.37.625 1.157 1.825 2.253 2.8 1.422 1.265 2.571 1.73 3.123 1.954l.137.056c.145.06.328.103.465-.042.248-.267.562-.706.894-1.171l.199-.279c.349-.493.779-.597 1.078-.597.175 0 .357.035.543.105.465.162 2.912 1.381 2.937 1.393l.235.115c.35.168.626.301.784.579.229.398.139 1.442-.209 2.427-.417 1.179-1.967 2.1-3.213 2.368a4.31 4.31 0 01-.939.107zM10.38 8.507c-.472 0-.902.142-1.124.369-.461.468-1.342 1.361-1.342 3.18 0 1.181.585 2.658 1.605 4.051l.116.165c1.998 2.898 4.452 5.055 6.909 6.072 1.893.785 3.182 1.15 4.057 1.15.3 0 .523-.042.727-.085.973-.21 2.198-.929 2.479-1.724.304-.857.298-1.516.262-1.647-.002.031-.182-.054-.327-.124l-.249-.122c-.701-.351-2.513-1.236-2.83-1.347a.573.573 0 00-.202-.045c-.045 0-.138 0-.264.178l-.2.28c-.351.492-.682.956-.976 1.272-.377.403-1.024.515-1.581.283l-.127-.052c-.557-.225-1.862-.753-3.413-2.133-1.196-1.066-2.049-2.363-2.451-3.042-.423-.729.006-1.231.212-1.472.131-.163.259-.298.387-.434.084-.089.168-.178.254-.278.225-.259.299-.345.396-.552.029-.057.045-.138-.059-.354-.076-.16-.562-1.334-.953-2.286l-.362-.877c-.165-.396-.165-.396-.479-.408a6.578 6.578 0 00-.465-.018z"/><circle cx="7.5" cy="4" r=".5"/></g></symbol></svg>