<svg width="299" height="39" viewBox="0 0 299 39" fill="none" xmlns="http://www.w3.org/2000/svg">
<path fill-rule="evenodd" clip-rule="evenodd" d="M18.6202 14.155C18.4879 17.0018 18.2808 20.3886 18 24.3155L24.9967 1H18.819V6.93953C18.819 8.90261 18.7529 11.3079 18.6202 14.155Z" fill="#F9AB00"/>
<path fill-rule="evenodd" clip-rule="evenodd" d="M0 19.6993L11.339 38.5969V0.80127L0 19.6993Z" fill="#F9AB00"/>
<path fill-rule="evenodd" clip-rule="evenodd" d="M34.9206 2.30741L36.1013 4.27503V4.27541L37.282 6.24303L37.7144 6.96341L39.3271 9.65141L40.9402 12.3394L42.121 14.3074L42.553 15.0278L43.7337 16.9954L45.3468 19.6834L45.3543 19.6963V19.7019L45.0535 20.2035L44.6211 20.9235L43.4404 22.8915L41.8277 25.5795L41.3953 26.2999L40.2146 28.2679L39.7826 28.9879L39.0338 30.2355L38.6018 30.9559L37.4211 32.9235V32.9239L36.9887 33.6439L36.5567 34.3642L35.808 35.6119L35.376 36.3319V36.3322L34.1953 38.2999L34.0169 38.5969H33.803V0.80127H34.0169L34.9206 2.30741Z" fill="#F9AB00"/>
<path fill-rule="evenodd" clip-rule="evenodd" d="M26.4673 23.6629C26.6309 20.7262 26.869 17.695 27.1809 14.5697L20.1373 38.5969H26.2212V32.2159C26.2212 29.4508 26.3032 26.5996 26.4673 23.6629Z" fill="#F9AB00"/>
<path d="M51.7414 8.28248H67.1547V30H64.9697V10.3494H53.9264V30H51.7414V8.28248ZM72.4402 8.28248H74.6547V16.4321L83.3211 8.28248H86.2591L75.8211 18.0266L87.0711 30H84.1922L74.6547 19.872V30H72.4402V8.28248ZM90.2896 30V8.28248H101.17V10.4232H92.4303V17.3622H93.449C96.1557 17.3622 98.1193 17.6033 99.3398 18.0856C100.57 18.5581 101.535 19.311 102.233 20.3445C102.942 21.3681 103.296 22.5098 103.296 23.7697C103.296 25.4232 102.676 26.875 101.436 28.125C100.196 29.375 98.4687 30 96.2542 30H90.2896ZM92.4303 19.5472V27.874H95.1026C96.6872 27.874 97.8486 27.7215 98.5868 27.4163C99.325 27.1014 99.9107 26.624 100.344 25.9843C100.787 25.3346 101.008 24.6112 101.008 23.814C101.008 22.81 100.698 21.9587 100.078 21.2598C99.4579 20.561 98.6853 20.1033 97.7601 19.8868C96.8349 19.6604 95.4618 19.5472 93.641 19.5472H92.4303Z" fill="#F9AB00"/>
<path d="M126.278 8.84184V30.5594H122.144V16.9619L114.039 30.5594H110.436V8.84184H114.57V22.8822L122.794 8.84184H126.278ZM131.224 8.84184H135.417V17.0357H142.681V8.84184H146.859V30.5594H142.681V21.0367H135.417V30.5594H131.224V8.84184ZM171.78 12.6657L168.886 15.4265C166.918 13.3497 164.703 12.3113 162.243 12.3113C160.166 12.3113 158.414 13.02 156.987 14.4373C155.569 15.8546 154.861 17.6017 154.861 19.6785C154.861 21.1253 155.176 22.4098 155.806 23.5318C156.435 24.6538 157.326 25.5348 158.478 26.1745C159.629 26.8143 160.909 27.1342 162.316 27.1342C163.517 27.1342 164.615 26.9127 165.609 26.4698C166.603 26.017 167.695 25.2001 168.886 24.019L171.691 26.9422C170.087 28.5072 168.571 29.5948 167.144 30.205C165.717 30.8054 164.088 31.1056 162.257 31.1056C158.881 31.1056 156.116 30.0377 153.96 27.9019C151.814 25.7562 150.742 23.0101 150.742 19.6637C150.742 17.4983 151.229 15.5741 152.203 13.891C153.187 12.208 154.59 10.8546 156.411 9.83101C158.242 8.80739 160.21 8.29558 162.316 8.29558C164.108 8.29558 165.83 8.67451 167.484 9.43239C169.147 10.1903 170.579 11.268 171.78 12.6657ZM173.271 8.84184H185.274V12.9166H181.317V30.5594H177.124V12.9166H173.271V8.84184ZM188.094 8.84184H192.479C194.851 8.84184 196.558 9.06329 197.602 9.50621C198.655 9.93928 199.482 10.6479 200.082 11.6322C200.692 12.6066 200.997 13.7779 200.997 15.146C200.997 16.6617 200.599 17.9216 199.802 18.9255C199.014 19.9294 197.941 20.6283 196.583 21.022C195.786 21.2483 194.334 21.3615 192.228 21.3615V30.5594H188.094V8.84184ZM192.228 17.331H193.542C194.575 17.331 195.294 17.2572 195.697 17.1096C196.101 16.9619 196.416 16.7208 196.642 16.3861C196.878 16.0416 196.996 15.6283 196.996 15.146C196.996 14.3094 196.672 13.6991 196.022 13.3153C195.55 13.0298 194.674 12.8871 193.394 12.8871H192.228V17.331ZM211.125 25.5987L203.419 8.84184H208.084L213.192 20.9481L217.385 8.84184H221.637L215.85 24.3733C214.856 27.0308 213.773 28.8123 212.602 29.7178C211.44 30.6135 210.2 31.0613 208.881 31.0613C206.736 31.0613 204.757 30.0082 202.946 27.9019L205.663 25.1706C206.745 26.4304 207.813 27.0603 208.867 27.0603C209.339 27.0603 209.728 26.9472 210.033 26.7208C210.338 26.4944 210.702 26.1204 211.125 25.5987ZM226.554 8.84184H230.599L235.619 23.9895L240.712 8.84184H244.698L248.36 30.5594H244.373L242.041 16.8438L237.42 30.5594H233.773L229.211 16.8438L226.834 30.5594H222.804L226.554 8.84184ZM251.696 8.84184H263.552V12.8871H255.801V16.8143H263.552V20.7857H255.801V26.4993H263.552V30.5594H251.696V8.84184ZM267.405 8.84184H271.598V17.0357H278.862V8.84184H283.04V30.5594H278.862V21.0367H271.598V30.5594H267.405V8.84184ZM285.86 8.84184H297.863V12.9166H293.906V30.5594H289.713V12.9166H285.86V8.84184Z" fill="#F9AB00"/>
</svg>
