<svg width="500" height="497" viewBox="0 0 500 497" fill="none" xmlns="http://www.w3.org/2000/svg">
<rect x="364" y="43" width="16" height="27" rx="8" fill="black"/>
<rect x="440.092" y="68" width="16" height="27" rx="8" transform="rotate(45 440.092 68)" fill="black"/>
<rect x="476" y="138" width="16" height="27" rx="8" transform="rotate(90 476 138)" fill="black"/>
<rect x="451.406" y="215.092" width="16" height="27" rx="8" transform="rotate(135 451.406 215.092)" fill="black"/>
<rect x="379" y="251" width="16" height="27" rx="8" transform="rotate(180 379 251)" fill="black"/>
<rect x="303.313" y="225.406" width="16" height="27" rx="8" transform="rotate(-135 303.313 225.406)" fill="black"/>
<rect x="268" y="154" width="16" height="27" rx="8" transform="rotate(-90 268 154)" fill="black"/>
<rect x="293" y="79.3137" width="16" height="27" rx="8" transform="rotate(-45 293 79.3137)" fill="black"/>
<path fill-rule="evenodd" clip-rule="evenodd" d="M364 83C364 78.5817 367.582 75 372 75C376.418 75 380 78.5817 380 83V124C380 124.122 379.997 124.243 379.992 124.363C389.318 127.655 396 136.547 396 147C396 150.71 395.158 154.223 393.656 157.358C393.763 157.454 393.868 157.554 393.971 157.657L422.962 186.648C426.086 189.772 426.086 194.838 422.962 197.962C419.838 201.086 414.772 201.086 411.648 197.962L382.657 168.971C382.554 168.868 382.454 168.763 382.358 168.656C379.222 170.158 375.71 171 372 171C358.745 171 348 160.255 348 147C348 136.547 354.682 127.655 364.008 124.363C364.003 124.243 364 124.122 364 124V83ZM372 155C376.418 155 380 151.418 380 147C380 142.582 376.418 139 372 139C367.582 139 364 142.582 364 147C364 151.418 367.582 155 372 155Z" fill="black"/>
<path fill-rule="evenodd" clip-rule="evenodd" d="M157 16H210C223.255 16 234 26.7452 234 40V44H250V40C250 17.9086 232.091 0 210 0H157C134.909 0 117 17.9086 117 40V44H133V40C133 26.7452 143.745 16 157 16Z" fill="black"/>
<path fill-rule="evenodd" clip-rule="evenodd" d="M266 69H291.626C286.852 73.9185 282.525 79.2737 278.712 85H266V69ZM352 467V257.219C357.217 258.16 362.559 258.739 368 258.93V467C368 483.569 354.569 497 338 497H30C13.4315 497 0 483.569 0 467V99C0 82.4315 13.4315 69 30 69H101V85H30C22.268 85 16 91.268 16 99V467C16 474.732 22.268 481 30 481H338C345.732 481 352 474.732 352 467ZM60 186V233H103V186H60ZM52 170C47.5817 170 44 173.582 44 178V241C44 245.418 47.5817 249 52 249H111C115.418 249 119 245.418 119 241V178C119 173.582 115.418 170 111 170H52ZM162 186V233H205V186H162ZM154 170C149.582 170 146 173.582 146 178V241C146 245.418 149.582 249 154 249H213C217.418 249 221 245.418 221 241V178C221 173.582 217.418 170 213 170H154ZM60 334V287H103V334H60ZM44 279C44 274.582 47.5817 271 52 271H111C115.418 271 119 274.582 119 279V342C119 346.418 115.418 350 111 350H52C47.5817 350 44 346.418 44 342V279ZM60 388V435H103V388H60ZM52 372C47.5817 372 44 375.582 44 380V443C44 447.418 47.5817 451 52 451H111C115.418 451 119 447.418 119 443V380C119 375.582 115.418 372 111 372H52ZM162 435V388H205V435H162ZM146 380C146 375.582 149.582 372 154 372H213C217.418 372 221 375.582 221 380V443C221 447.418 217.418 451 213 451H154C149.582 451 146 447.418 146 443V380ZM270 388V435H313V388H270ZM262 372C257.582 372 254 375.582 254 380V443C254 447.418 257.582 451 262 451H321C325.418 451 329 447.418 329 443V380C329 375.582 325.418 372 321 372H262ZM270 334V287H313V334H270ZM254 279C254 274.582 257.582 271 262 271H321C325.418 271 329 274.582 329 279V342C329 346.418 325.418 350 321 350H262C257.582 350 254 346.418 254 342V279ZM230.9 276.657C227.775 273.533 222.71 273.533 219.586 276.657L173.166 323.076L156.695 299.553C154.161 295.934 149.172 295.054 145.553 297.589C141.934 300.123 141.054 305.111 143.589 308.73L165.622 340.197C168.156 343.816 173.144 344.696 176.763 342.161C177.614 341.566 178.313 340.835 178.852 340.018L230.9 287.971C234.024 284.846 234.024 279.781 230.9 276.657Z" fill="black"/>
<path fill-rule="evenodd" clip-rule="evenodd" d="M282 80.3248V54C282 48.4772 277.523 44 272 44H95C89.4772 44 85 48.4772 85 54V105C85 110.523 89.4771 115 95 115H264.638C268.399 102.363 274.33 90.6603 282 80.3248ZM101 99V60H266V99H101Z" fill="black"/>
<path fill-rule="evenodd" clip-rule="evenodd" d="M484 147C484 208.856 433.856 259 372 259C310.144 259 260 208.856 260 147C260 85.1441 310.144 35 372 35C433.856 35 484 85.1441 484 147ZM500 147C500 217.692 442.692 275 372 275C301.308 275 244 217.692 244 147C244 76.3076 301.308 19 372 19C442.692 19 500 76.3076 500 147Z" fill="black"/>
</svg>
