<svg width="299" height="39" fill="none" xmlns="http://www.w3.org/2000/svg"><path fill-rule="evenodd" clip-rule="evenodd" d="M18.62 14.155c-.132 2.847-.34 6.234-.62 10.16L24.997 1h-6.178v5.94c0 1.963-.066 4.368-.199 7.215zM0 19.7l11.339 18.897V.8L0 19.7zM34.92 2.307l1.181 1.968 1.181 1.968.432.72 1.613 2.688 1.613 2.688 1.181 1.968.432.72 1.18 1.968 1.614 2.688.007.013v.006l-.3.501-.433.72-1.18 1.969-1.613 2.688-.433.72-1.18 1.968-.432.72-.75 1.247-.431.72-1.18 1.968-.433.72-.432.721-.749 1.248-.432.72-1.18 1.968-.18.297h-.213V.8h.214l.904 1.506zm-8.453 21.356c.164-2.937.402-5.968.714-9.093l-7.044 24.027h6.084v-6.381c0-2.765.082-5.616.246-8.553z" fill="#F9AB00"/><path d="M51.741 8.282h15.414V30H64.97V10.35H53.926V30h-2.185V8.282zm20.7 0h2.214v8.15l8.666-8.15h2.938l-10.438 9.745L87.071 30h-2.879l-9.537-10.128V30H72.44V8.282zM90.29 30V8.282h10.88v2.141h-8.74v6.94h1.019c2.707 0 4.67.24 5.89.723 1.231.472 2.196 1.225 2.894 2.259a5.878 5.878 0 011.063 3.425c0 1.653-.62 3.105-1.86 4.355-1.24 1.25-2.967 1.875-5.182 1.875H90.29zm2.14-10.453v8.327h2.673c1.584 0 2.746-.152 3.484-.458a3.937 3.937 0 001.757-1.432c.443-.65.664-1.373.664-2.17 0-1.004-.31-1.855-.93-2.554a4.348 4.348 0 00-2.318-1.373c-.925-.227-2.298-.34-4.119-.34h-1.21zm33.848-10.705v21.717h-4.134V16.962l-8.105 13.597h-3.603V8.842h4.134v14.04l8.224-14.04h3.484zm4.946 0h4.193v8.194h7.264V8.842h4.178v21.717h-4.178v-9.522h-7.264v9.522h-4.193V8.842zm40.556 3.824l-2.894 2.76c-1.968-2.076-4.183-3.115-6.643-3.115-2.077 0-3.829.709-5.256 2.126-1.418 1.418-2.126 3.165-2.126 5.242 0 1.446.315 2.73.945 3.853a6.757 6.757 0 002.672 2.642c1.151.64 2.431.96 3.838.96 1.201 0 2.299-.221 3.293-.664.994-.453 2.086-1.27 3.277-2.451l2.805 2.923c-1.604 1.565-3.12 2.653-4.547 3.263-1.427.6-3.056.9-4.887.9-3.376 0-6.141-1.067-8.297-3.203-2.146-2.146-3.218-4.892-3.218-8.238 0-2.166.487-4.09 1.461-5.773.984-1.683 2.387-3.036 4.208-4.06a11.906 11.906 0 015.905-1.535c1.792 0 3.514.379 5.168 1.136a12.362 12.362 0 014.296 3.234zm1.491-3.824h12.003v4.075h-3.957v17.642h-4.193V12.917h-3.853V8.842zm14.823 0h4.385c2.372 0 4.079.221 5.123.664a5.12 5.12 0 012.48 2.126c.61.975.915 2.146.915 3.514 0 1.516-.398 2.776-1.195 3.78-.788 1.003-1.861 1.702-3.219 2.096-.797.226-2.249.34-4.355.34v9.197h-4.134V8.842zm4.134 8.489h1.314c1.033 0 1.752-.074 2.155-.221.404-.148.719-.39.945-.724.236-.344.354-.758.354-1.24 0-.837-.324-1.447-.974-1.83-.472-.286-1.348-.429-2.628-.429h-1.166v4.444zm18.897 8.268l-7.706-16.757h4.665l5.108 12.106 4.193-12.106h4.252l-5.787 15.531c-.994 2.658-2.077 4.44-3.248 5.345-1.162.895-2.402 1.343-3.721 1.343-2.145 0-4.124-1.053-5.935-3.16l2.717-2.73c1.082 1.26 2.15 1.89 3.204 1.89.472 0 .861-.114 1.166-.34.305-.227.669-.6 1.092-1.122zm15.429-16.757h4.045l5.02 15.147 5.093-15.147h3.986l3.662 21.717h-3.987l-2.332-13.715-4.621 13.715h-3.647l-4.562-13.715-2.377 13.715h-4.03l3.75-21.717zm25.142 0h11.856v4.045h-7.751v3.927h7.751v3.972h-7.751v5.713h7.751v4.06h-11.856V8.842zm15.709 0h4.193v8.194h7.264V8.842h4.178v21.717h-4.178v-9.522h-7.264v9.522h-4.193V8.842zm18.455 0h12.003v4.075h-3.957v17.642h-4.193V12.917h-3.853V8.842z" fill="#F9AB00"/></svg>