<?xml version="1.0" standalone="no"?>
<!DOCTYPE svg PUBLIC "-//W3C//DTD SVG 20010904//EN"
 "http://www.w3.org/TR/2001/REC-SVG-20010904/DTD/svg10.dtd">
<svg version="1.0" xmlns="http://www.w3.org/2000/svg"
 width="960.000000pt" height="960.000000pt" viewBox="0 0 960.000000 960.000000"
 preserveAspectRatio="xMidYMid meet">
<metadata>
Created by potrace 1.14, written by Peter Selinger 2001-2017
</metadata>
<g transform="translate(0.000000,960.000000) scale(0.100000,-0.100000)"
fill="#000000" stroke="none">
<path d="M3989 8153 c0 -445 -2 -875 -4 -958 -4 -200 -16 -619 -21 -725 -1
-47 -5 -143 -8 -215 -9 -225 -15 -357 -21 -460 -4 -55 -8 -145 -11 -200 -9
-188 -12 -250 -18 -335 -3 -47 -8 -139 -11 -205 -4 -66 -9 -145 -11 -175 -2
-30 -6 -98 -9 -150 -11 -189 -13 -227 -21 -330 -4 -58 -8 -135 -8 -172 -1 -38
-3 -68 -6 -68 -3 0 -6 -21 -6 -48 -1 -26 -4 -86 -7 -134 -3 -49 -2 -88 2 -88
4 0 16 33 26 73 11 39 20 77 22 82 9 35 65 223 70 235 3 8 7 22 8 30 1 8 10
42 20 75 10 33 20 65 21 70 1 6 14 51 30 100 15 50 28 92 29 95 9 48 30 118
38 128 5 6 7 12 4 12 -3 0 -2 12 3 28 9 30 144 495 153 527 3 11 26 92 52 180
26 88 48 165 49 170 2 6 11 37 21 70 10 33 20 65 21 70 2 6 5 19 8 30 3 11 14
52 26 90 34 113 80 278 86 304 3 14 7 28 10 33 5 8 50 162 59 203 3 11 14 50
26 88 11 37 22 73 23 80 2 7 9 32 16 57 7 25 15 50 16 55 1 6 23 80 49 165 25
85 48 165 50 176 3 12 15 53 26 90 12 38 23 76 24 84 2 8 4 15 5 15 1 0 3 7 5
15 2 8 13 49 25 90 11 41 23 84 25 95 3 11 9 31 15 45 5 14 16 50 24 80 8 30
31 111 51 180 20 69 38 133 40 142 2 9 8 25 14 36 6 11 8 22 4 25 -3 4 -1 12
5 19 6 7 11 16 11 21 1 4 1 8 2 10 0 1 2 11 4 22 2 11 11 43 20 70 8 28 36
122 61 210 25 88 49 171 54 185 5 14 11 36 14 50 2 14 16 61 29 105 33 104 67
228 67 243 0 9 -155 12 -650 12 l-650 0 -1 -807z"/>
<path d="M7155 4806 c0 -3842 1 -4155 16 -4159 22 -6 32 2 55 43 10 19 27 46
36 59 10 13 15 27 12 32 -3 5 -1 9 4 9 5 0 15 12 23 27 7 16 31 56 51 91 21
34 38 64 38 66 0 2 25 45 55 95 30 51 55 94 55 96 0 2 34 61 75 130 41 70 75
128 75 130 0 8 76 130 82 133 5 2 8 11 8 20 0 8 6 23 13 31 11 13 174 291 236
404 9 16 21 36 26 45 6 9 37 63 70 120 33 57 65 111 70 120 6 9 23 40 38 67
15 28 41 73 58 100 16 28 32 57 36 65 3 8 12 22 18 30 7 8 25 38 39 65 15 28
31 57 36 65 29 47 120 203 120 206 0 2 22 41 49 86 27 46 58 100 70 121 11 20
30 52 40 71 11 18 25 44 33 57 7 13 15 26 18 29 3 3 13 20 23 38 9 17 25 47
35 64 9 18 19 35 22 38 3 3 12 17 20 32 11 21 218 379 285 496 6 9 28 49 50
87 21 39 43 72 47 73 4 2 8 8 8 14 0 6 20 44 45 85 25 40 45 76 45 79 0 3 16
29 35 59 19 30 32 55 29 55 -3 0 2 7 10 16 9 8 16 22 16 30 0 8 5 14 10 14 6
0 10 4 10 8 0 7 21 45 128 230 18 31 36 65 39 75 3 9 9 17 13 17 29 0 13 53
-43 145 -46 75 -64 107 -90 155 -16 30 -36 62 -43 71 -8 8 -14 18 -14 22 0 3
-36 67 -80 143 -44 75 -80 137 -80 139 0 2 -18 33 -40 69 -22 36 -40 70 -40
76 0 5 -4 10 -10 10 -5 0 -10 4 -10 9 0 9 -53 106 -88 161 -9 14 -15 28 -14
33 1 4 -3 7 -8 7 -6 0 -10 4 -10 9 0 12 -83 155 -92 159 -5 2 -8 9 -8 14 0 6
-13 32 -29 57 -29 45 -78 131 -103 181 -7 14 -15 27 -19 30 -3 3 -25 41 -49
85 -24 44 -47 82 -52 83 -4 2 -8 8 -8 12 0 5 -17 37 -37 72 -21 35 -38 66 -38
70 0 4 -6 13 -12 20 -7 6 -13 18 -13 25 0 7 -3 13 -7 13 -5 0 -13 10 -18 23
-15 31 -59 111 -65 117 -3 3 -11 16 -19 30 -8 14 -39 68 -69 120 -30 52 -60
104 -66 115 -6 11 -15 23 -21 27 -5 4 -7 8 -2 8 4 0 -5 18 -19 40 -27 40 -36
56 -89 155 -16 30 -33 55 -37 55 -4 0 -8 4 -8 10 0 8 -77 144 -240 425 -10 17
-41 70 -69 118 -28 49 -51 93 -51 98 0 5 -4 9 -10 9 -5 0 -10 4 -10 9 0 6 -29
60 -65 121 -36 61 -65 114 -65 117 0 4 -6 14 -14 22 -12 15 -66 108 -90 158
-6 13 -14 23 -18 23 -5 0 -8 4 -8 9 0 5 -41 80 -92 168 -50 87 -107 185 -125
218 -64 113 -69 120 -94 123 l-24 3 0 -4155z"/>
<path d="M2367 8906 c-15 -24 -27 -46 -27 -49 0 -3 -18 -35 -40 -71 -22 -36
-40 -70 -40 -76 0 -5 -4 -10 -9 -10 -5 0 -14 -12 -20 -27 -13 -35 -44 -87 -53
-91 -5 -2 -8 -7 -8 -12 0 -4 -40 -78 -90 -164 -49 -86 -90 -160 -90 -165 0 -5
-3 -11 -8 -13 -4 -1 -50 -77 -101 -168 -52 -91 -101 -173 -109 -182 -8 -10
-12 -18 -8 -18 4 0 -6 -19 -22 -42 -16 -24 -42 -68 -59 -98 -38 -68 -316 -551
-392 -680 -87 -149 -101 -174 -108 -192 -3 -10 -9 -18 -14 -18 -5 0 -9 -4 -9
-10 0 -9 -34 -69 -79 -140 -8 -14 -16 -27 -16 -30 0 -3 -36 -66 -79 -140 -43
-74 -90 -155 -104 -180 -14 -25 -36 -62 -49 -82 -12 -21 -23 -40 -23 -42 0 -3
-31 -57 -69 -120 -38 -64 -66 -116 -63 -116 4 0 2 -4 -4 -8 -12 -8 -134 -220
-134 -233 0 -5 -4 -9 -10 -9 -5 0 -10 -6 -10 -14 0 -7 -7 -19 -15 -26 -8 -7
-13 -16 -10 -20 3 -5 2 -10 -3 -12 -6 -2 -81 -131 -136 -233 -6 -11 -13 -22
-16 -25 -11 -11 -140 -241 -140 -250 0 -6 -4 -10 -10 -10 -5 0 -10 -7 -10 -15
0 -8 -4 -15 -8 -15 -4 0 -13 -12 -19 -28 -12 -28 -54 -103 -63 -112 -3 -3 -13
-21 -24 -40 -10 -19 -29 -54 -42 -76 l-23 -42 106 -183 c58 -101 114 -200 125
-219 11 -19 62 -107 113 -195 51 -88 142 -245 203 -350 60 -104 135 -235 167
-290 85 -147 88 -151 150 -260 31 -55 66 -116 78 -135 11 -19 27 -48 35 -65 9
-16 18 -32 22 -35 4 -3 20 -30 37 -60 29 -54 182 -321 273 -475 25 -44 50 -87
54 -95 4 -8 12 -24 19 -35 15 -25 68 -113 84 -140 6 -11 19 -33 27 -50 8 -16
27 -48 41 -70 13 -22 28 -47 32 -55 4 -8 24 -43 45 -78 21 -34 38 -64 38 -66
0 -4 73 -129 91 -156 5 -8 15 -27 22 -42 6 -16 15 -28 19 -28 4 0 8 -4 8 -10
0 -5 27 -55 60 -111 33 -55 60 -103 60 -105 0 -2 18 -33 40 -69 22 -36 40 -69
40 -74 0 -5 3 -11 8 -13 4 -2 15 -19 25 -38 30 -57 53 -98 79 -138 13 -20 30
-50 38 -67 8 -16 25 -44 37 -61 13 -17 23 -33 23 -36 0 -3 45 -84 101 -179 56
-96 99 -162 96 -147 -2 16 0 28 4 28 5 0 4 11 -1 25 -6 16 -6 25 0 25 5 0 6 9
1 22 -4 13 -5 35 0 50 4 16 4 28 -1 28 -5 0 -5 13 0 30 5 17 5 30 1 30 -4 0
-5 20 -1 45 4 25 3 48 -2 51 -4 3 -4 13 1 22 6 11 6 24 0 34 -5 9 -5 19 0 22
9 6 7 54 -3 63 -3 3 -1 14 4 24 7 12 7 20 0 24 -7 4 -7 12 0 25 7 13 7 21 0
25 -6 4 -8 11 -4 16 7 12 9 214 1 226 -3 5 -2 15 3 23 5 8 5 21 -1 31 -5 10
-5 20 0 23 4 3 6 18 4 33 -5 32 -5 36 -1 86 2 20 1 37 -2 37 -7 0 -4 66 4 79
4 5 2 12 -3 16 -7 3 -7 15 -1 30 5 13 5 27 1 29 -5 3 -5 23 -1 45 4 22 4 45
-1 52 -4 7 -3 21 2 30 6 12 5 20 -1 24 -6 4 -8 11 -4 16 9 16 10 79 1 79 -4 0
-5 5 -2 10 8 13 9 159 2 167 -4 3 -2 14 3 24 7 12 7 20 0 24 -6 4 -8 11 -4 16
9 16 10 79 1 79 -4 0 -5 5 -2 10 8 13 9 159 2 167 -4 3 -2 14 3 24 7 12 7 20
0 24 -6 4 -8 11 -4 16 9 16 10 79 1 79 -4 0 -5 5 -2 10 8 13 9 159 2 167 -4 3
-2 14 3 24 7 12 7 20 0 24 -6 4 -8 11 -4 16 9 16 10 79 1 79 -4 0 -5 5 -2 10
8 13 9 159 2 167 -4 3 -2 14 3 24 7 12 7 20 0 24 -6 4 -8 11 -4 16 9 16 10 79
1 79 -4 0 -5 5 -2 10 8 13 9 159 2 167 -4 3 -2 14 3 24 7 12 7 20 0 24 -6 4
-8 11 -4 16 9 16 10 79 1 79 -4 0 -5 5 -2 10 8 13 9 159 2 167 -4 3 -2 14 3
24 7 12 7 20 0 24 -6 4 -8 11 -4 16 9 16 10 79 1 79 -4 0 -5 5 -2 10 8 13 9
159 2 167 -4 3 -2 14 3 24 7 12 7 20 0 24 -6 4 -8 11 -4 16 9 16 10 79 1 79
-4 0 -5 5 -2 10 6 9 7 42 5 140 -1 8 1 32 2 53 2 20 1 37 -2 37 -7 0 -4 66 4
79 4 5 2 12 -3 16 -7 3 -7 15 -1 30 5 13 5 27 1 29 -5 3 -5 24 -1 46 4 22 3
43 -1 46 -5 3 -5 13 0 22 6 11 6 24 0 34 -5 9 -5 19 0 22 9 6 7 54 -3 63 -3 3
-1 14 4 24 7 12 7 20 0 24 -7 4 -7 12 0 25 7 13 7 21 0 25 -6 4 -8 11 -4 16 7
12 9 214 1 226 -3 5 -2 15 3 23 5 8 5 21 -1 31 -5 10 -5 20 0 23 4 3 6 18 4
33 -5 32 -5 36 -1 86 2 20 1 37 -2 37 -7 0 -4 66 4 79 4 5 2 12 -3 16 -7 3 -7
15 -1 30 5 13 5 27 1 29 -5 3 -5 24 -1 46 4 22 3 43 -1 46 -5 3 -5 13 0 22 6
11 6 24 0 34 -5 9 -5 19 0 22 9 6 7 54 -3 63 -3 3 -1 14 4 24 7 12 7 20 0 24
-7 4 -7 12 0 25 7 13 7 21 0 25 -6 4 -8 11 -4 16 7 12 9 214 1 226 -3 5 -2 15
3 23 5 8 5 21 -1 31 -5 10 -5 20 0 23 4 3 6 18 4 33 -5 32 -5 36 -1 86 2 20 1
37 -2 37 -7 0 -4 66 4 79 4 5 2 12 -3 16 -7 3 -7 15 -1 30 5 13 5 27 1 29 -5
3 -5 24 -1 46 4 22 3 43 -1 46 -5 3 -5 13 0 22 6 11 6 24 0 34 -5 9 -5 19 0
22 9 6 7 54 -3 63 -3 3 -1 14 4 24 7 12 7 20 0 24 -7 4 -7 12 0 25 7 13 7 21
0 25 -6 4 -8 11 -4 16 7 12 9 214 1 226 -3 5 -2 15 3 23 5 8 5 21 -1 31 -5 10
-5 20 0 23 4 3 6 18 4 33 -5 32 -5 36 -1 86 2 20 1 37 -2 37 -7 0 -4 66 4 79
4 5 2 12 -3 16 -7 3 -7 15 -1 30 5 13 5 27 1 29 -5 3 -5 24 -1 46 4 22 3 43
-1 46 -5 3 -5 13 0 22 6 11 6 24 0 34 -5 9 -5 19 0 22 9 6 7 54 -3 63 -3 3 -1
14 4 24 7 12 7 20 0 24 -7 4 -7 12 0 25 7 13 7 21 0 25 -6 4 -8 11 -4 16 7 12
9 214 1 226 -3 5 -2 15 3 23 5 8 5 21 -1 31 -5 10 -5 20 0 23 4 3 6 18 4 33
-5 32 -5 36 -1 86 2 20 1 37 -2 37 -7 0 -4 66 4 79 4 5 2 12 -3 16 -7 3 -7 15
-1 30 6 15 6 27 -1 30 -5 4 -7 11 -3 16 7 13 8 148 1 156 -4 3 -2 13 3 22 5
10 5 23 0 31 -5 8 -4 22 1 32 6 12 6 18 0 18 -7 0 -7 8 -2 23 5 12 6 30 2 39
-5 14 -12 9 -34 -26z"/>
<path d="M5717 5808 c-10 -35 -19 -70 -21 -78 -2 -8 -9 -35 -16 -60 -7 -25
-13 -51 -13 -57 0 -7 -4 -13 -9 -13 -5 0 -6 -5 -3 -10 4 -6 1 -17 -5 -25 -7
-8 -10 -15 -7 -15 3 0 -2 -21 -10 -47 -13 -43 -39 -132 -49 -173 -2 -8 -13
-46 -24 -85 -11 -38 -22 -77 -25 -85 -2 -8 -16 -55 -30 -105 -14 -49 -28 -101
-31 -115 -2 -14 -7 -32 -11 -40 -3 -8 -8 -22 -9 -30 -2 -8 -20 -71 -40 -140
-19 -69 -39 -138 -44 -155 -4 -16 -20 -73 -35 -125 -15 -52 -36 -126 -46 -165
-26 -93 -24 -87 -54 -190 -15 -49 -32 -112 -40 -140 -7 -27 -23 -84 -34 -125
-26 -91 -30 -104 -35 -130 -3 -11 -7 -24 -10 -28 -3 -5 -7 -19 -10 -33 -3 -13
-13 -49 -22 -79 -8 -30 -17 -62 -19 -70 -2 -8 -4 -15 -5 -15 -1 0 -3 -7 -5
-15 -4 -25 -46 -174 -52 -190 -3 -8 -7 -19 -8 -25 -2 -5 -13 -46 -25 -90 -12
-44 -23 -84 -25 -90 -1 -5 -10 -36 -19 -69 -10 -32 -20 -66 -21 -75 -2 -9 -4
-16 -5 -16 -1 0 -3 -7 -5 -15 -1 -8 -13 -48 -25 -89 -12 -41 -23 -81 -25 -90
-4 -17 -33 -121 -92 -326 -20 -66 -44 -151 -54 -190 -11 -38 -21 -77 -23 -85
-3 -8 -5 -15 -6 -15 -1 0 -3 -7 -5 -15 -1 -8 -8 -35 -16 -60 -7 -25 -13 -49
-15 -55 -1 -5 -32 -116 -69 -245 -97 -345 -167 -593 -170 -610 -2 -8 -13 -46
-25 -85 -34 -113 -99 -347 -103 -369 -2 -10 1272 -15 1278 -6 2 3 4 476 6
1050 1 591 6 1053 11 1063 5 10 5 17 -1 17 -5 0 -8 10 -5 23 2 12 7 108 9 212
5 192 10 338 21 585 4 74 7 168 8 207 0 40 3 73 6 73 3 0 5 35 6 78 1 71 9
220 19 367 6 78 16 234 20 310 2 33 6 89 9 125 3 36 7 97 10 135 3 39 8 104
12 145 3 41 7 94 9 117 2 23 6 77 10 120 3 43 8 98 10 123 6 74 16 183 20 220
2 19 6 71 10 115 3 44 8 92 11 108 8 51 -12 27 -29 -35z"/>
<path d="M3821 3864 c0 -11 3 -14 6 -6 3 7 2 16 -1 19 -3 4 -6 -2 -5 -13z"/>
</g>
</svg>
